<svg xmlns="http://www.w3.org/2000/svg" width="184.88" height="35" viewBox="0 0 184.88 35"><rect class="svg__rect" x="0" y="0" width="115.31" height="35" fill="#136AA0"/><rect class="svg__rect" x="113.31" y="0" width="71.57" height="35" fill="#389AD5"/><path class="svg__text" d="M15.69 22L14.22 22L14.22 13.47L16.14 13.47L18.60 20.01L21.06 13.47L22.97 13.47L22.97 22L21.49 22L21.49 19.19L21.64 15.43L19.12 22L18.06 22L15.55 15.43L15.69 19.19L15.69 22ZM28.49 22L26.95 22L30.17 13.47L31.50 13.47L34.73 22L33.18 22L32.49 20.01L29.18 20.01L28.49 22ZM30.83 15.28L29.60 18.82L32.07 18.82L30.83 15.28ZM41.14 22L38.69 22L38.69 13.47L41.21 13.47Q42.34 13.47 43.21 13.97Q44.09 14.48 44.57 15.40Q45.05 16.33 45.05 17.52L45.05 17.52L45.05 17.95Q45.05 19.16 44.57 20.08Q44.08 21.00 43.19 21.50Q42.30 22 41.14 22L41.14 22ZM40.17 14.66L40.17 20.82L41.14 20.82Q42.30 20.82 42.93 20.09Q43.55 19.36 43.56 17.99L43.56 17.99L43.56 17.52Q43.56 16.13 42.96 15.40Q42.35 14.66 41.21 14.66L41.21 14.66L40.17 14.66ZM55.09 22L49.51 22L49.51 13.47L55.05 13.47L55.05 14.66L51.00 14.66L51.00 17.02L54.50 17.02L54.50 18.19L51.00 18.19L51.00 20.82L55.09 20.82L55.09 22ZM66.65 22L64.68 13.47L66.15 13.47L67.47 19.88L69.10 13.47L70.34 13.47L71.96 19.89L73.27 13.47L74.74 13.47L72.77 22L71.35 22L69.73 15.77L68.07 22L66.65 22ZM80.38 22L78.90 22L78.90 13.47L80.38 13.47L80.38 22ZM86.87 14.66L84.23 14.66L84.23 13.47L91.00 13.47L91.00 14.66L88.34 14.66L88.34 22L86.87 22L86.87 14.66ZM96.24 22L94.75 22L94.75 13.47L96.24 13.47L96.24 17.02L100.05 17.02L100.05 13.47L101.53 13.47L101.53 22L100.05 22L100.05 18.21L96.24 18.21L96.24 22Z" fill="#FFFFFF"/><path class="svg__text" d="M129.88 22L127.50 22L127.50 13.60L129.88 13.60L129.88 16.76L133.12 16.76L133.12 13.60L135.49 13.60L135.49 22L133.12 22L133.12 18.72L129.88 18.72L129.88 22ZM142.45 15.48L139.86 15.48L139.86 13.60L147.38 13.60L147.38 15.48L144.82 15.48L144.82 22L142.45 22L142.45 15.48ZM153.95 22L151.76 22L151.76 13.60L153.71 13.60L156.67 18.45L159.55 13.60L161.50 13.60L161.52 22L159.34 22L159.32 17.55L157.16 21.17L156.10 21.17L153.95 17.67L153.95 22ZM173.07 22L166.69 22L166.69 13.60L169.06 13.60L169.06 20.11L173.07 20.11L173.07 22Z" fill="#FFFFFF" x="126.31"/></svg>